<svg xmlns="http://www.w3.org/2000/svg" xmlns:xlink="http://www.w3.org/1999/xlink" width="2000" zoomAndPan="magnify" viewBox="0 0 1500 1499.999933" height="2000" preserveAspectRatio="xMidYMid meet" version="1.0"><path fill="#3a84ef" d="M 1500 750 C 1500 1164.332031 1164.332031 1500 750 1500 C 749.320312 1500 748.304688 1500 747.625 1500 C 543.171875 1499.320312 358.046875 1416.929688 223.101562 1283.679688 L 819.507812 1283.679688 C 890.710938 1283.679688 951.742188 1270.796875 1002.597656 1245.367188 C 1053.457031 1219.597656 1092.449219 1185.011719 1119.234375 1140.597656 C 1146.359375 1096.519531 1159.921875 1047.015625 1159.921875 991.75 C 1159.921875 919.53125 1136.867188 858.839844 1090.753906 809.675781 C 1067.019531 784.246094 1037.863281 763.222656 1003.617188 746.269531 C 1027.691406 732.707031 1048.710938 716.773438 1065.664062 698.464844 C 1105.671875 655.742188 1125.339844 603.527344 1125.339844 541.816406 C 1125.339844 493.332031 1113.472656 449.253906 1089.738281 409.585938 C 1066.003906 369.574219 1031.417969 338.042969 986.664062 314.308594 C 961.914062 301.425781 934.109375 291.929688 903.59375 285.828125 L 1400.65625 377.035156 C 1463.71875 486.890625 1500 614.035156 1500 750 Z M 1500 750 " fill-opacity="1" fill-rule="nonzero"/><path fill="#f7b731" d="M 920.546875 909.019531 C 932.074219 929.023438 937.5 951.742188 937.5 977.507812 C 937.5 1014.464844 925.292969 1046 900.542969 1071.429688 C 875.792969 1097.195312 841.546875 1109.742188 798.148438 1109.742188 L 91.886719 1109.742188 C 33.226562 1002.9375 0 880.199219 0 750 C 0 729.65625 0.679688 709.3125 2.375 689.308594 C 6.78125 635.058594 16.953125 582.503906 32.210938 531.984375 C 125.792969 224.117188 411.617188 0 750 0 C 985.648438 0 1195.863281 108.5 1333.183594 278.367188 L 831.035156 278.367188 C 828.324219 278.367188 825.269531 278.367188 822.21875 278.367188 L 413.3125 278.367188 L 413.3125 996.835938 L 611.664062 996.835938 L 611.664062 844.9375 L 798.144531 844.9375 C 827.644531 844.9375 852.394531 850.699219 872.738281 861.890625 C 893.421875 873.417969 909.019531 889.015625 920.546875 909.019531 Z M 869.347656 479.769531 C 846.632812 461.121094 816.792969 451.964844 779.835938 451.964844 L 611.664062 451.964844 L 611.664062 675.40625 L 779.835938 675.40625 C 816.792969 675.40625 846.632812 666.253906 869.347656 647.605469 C 892.066406 628.957031 903.59375 600.8125 903.59375 562.839844 C 903.59375 526.21875 892.066406 498.417969 869.347656 479.769531 Z M 869.347656 479.769531 " fill-opacity="1" fill-rule="nonzero"/><path fill="#e09717" d="M 903.59375 563.179688 C 903.59375 601.152344 892.066406 629.292969 869.347656 647.941406 C 846.632812 666.589844 816.792969 675.746094 779.835938 675.746094 L 611.664062 675.746094 L 611.664062 452.304688 L 779.835938 452.304688 C 816.792969 452.304688 846.632812 461.460938 869.347656 480.109375 C 892.066406 498.417969 903.59375 526.21875 903.59375 563.179688 Z M 920.546875 909.019531 C 909.019531 889.015625 893.082031 873.417969 872.738281 861.890625 C 852.394531 850.363281 827.304688 844.9375 798.144531 844.9375 L 611.664062 844.9375 L 611.664062 996.835938 L 413.3125 996.835938 L 413.3125 278.367188 L 32.210938 531.984375 C 16.953125 582.164062 6.78125 635.058594 2.375 689.308594 C 0.679688 709.3125 0 729.65625 0 750 C 0 880.539062 33.226562 1002.9375 91.886719 1109.742188 L 798.148438 1109.742188 C 841.886719 1109.742188 876.128906 1096.859375 900.542969 1071.429688 C 925.292969 1045.660156 937.5 1014.464844 937.5 977.507812 C 937.839844 951.742188 932.074219 929.023438 920.546875 909.019531 Z M 920.546875 909.019531 " fill-opacity="1" fill-rule="nonzero"/></svg>